<?xml version="1.0" encoding="UTF-8"?>
<svg width="315px" height="426px" viewBox="0 0 315 426" version="1.1" xmlns="http://www.w3.org/2000/svg" xmlns:xlink="http://www.w3.org/1999/xlink">
    <title>Glass</title>
    <defs>
        <linearGradient x1="50%" y1="0%" x2="50%" y2="100%" id="linearGradient-1">
            <stop stop-color="#5BC5FB" offset="0%"></stop>
            <stop stop-color="#5ABAEB" offset="100%"></stop>
        </linearGradient>
        <linearGradient x1="50%" y1="0%" x2="50%" y2="100%" id="linearGradient-2">
            <stop stop-color="#FFFFFF" stop-opacity="0.295044799" offset="0%"></stop>
            <stop stop-color="#FFFFFF" offset="100%"></stop>
        </linearGradient>
    </defs>
    <g id="Glass" stroke="none" stroke-width="1" fill="none" fill-rule="evenodd">
        <path d="M14.4269593,7 L300.540579,7 C304.958857,7 308.540579,10.581722 308.540579,15 C308.540579,15.1488369 308.536425,15.2976449 308.528123,15.44625 L288.737846,369.6775 C287.317128,395.107285 266.282021,415 240.812581,415 L72.7913408,415 C47.2507183,415 26.1829258,394.999626 24.85615,369.493488 L6.43776087,15.4155813 C6.20824164,11.0032689 9.59906553,7.24032076 14.011378,7.01080153 C14.1497882,7.00360173 14.288362,7 14.4269593,7 Z" id="Rectangle" fill="#DBEDFA"></path>
        <path d="M35.5297538,123.472584 C49.0106372,120.715571 58.9565755,119.565427 65.3675688,120.022152 C121.204162,124 145.034931,134.985091 161.5,138.460343 C181.509944,142.683806 205.880409,146.091426 211.877033,146.091426 C225.907253,146.091426 247.268729,139.647905 275.961464,126.760862 C277.976674,125.855747 280.344064,126.755661 281.249175,128.770873 C281.515138,129.363034 281.632986,130.011027 281.592546,130.658912 L268.437308,341.417685 C266.854641,366.773437 245.016737,386.045331 219.660985,384.462664 C218.141745,384.367835 216.628148,384.197655 215.125782,383.952751 C188.612826,379.630815 168.423976,377.469847 154.559234,377.469847 C139.997162,377.469847 118.927782,379.440006 91.3510941,383.380322 C68.9350898,386.58325 48.1668416,371.007975 44.9639133,348.59197 C44.7909954,347.381788 44.672289,346.164476 44.60815,344.943686 L33.1349797,126.569135 C33.0571016,125.086595 34.0752751,123.770044 35.5297538,123.472584 Z" id="Rectangle" fill="url(#linearGradient-1)"></path>
        <path d="M217.546437,145.711172 C231.563349,142.914064 242.131446,140.316598 249.250728,137.918773 C255.35302,135.863478 264.247098,132.161145 275.932963,126.811772 C277.941647,125.892264 280.315413,126.775219 281.234918,128.783904 C281.50914,129.38295 281.631149,130.040456 281.590106,130.698003 L268.433354,341.481037 C266.850687,366.836789 245.012783,386.108683 219.65703,384.526016 C217.848187,384.413111 216.047596,384.193404 214.264676,383.868044 L195.066867,380.364693 L195.066867,380.364693 C201.67229,334.376669 206.330551,297.232727 209.041649,268.932869 C211.752747,240.63301 214.587676,199.559111 217.546437,145.711172 Z" id="Rectangle" fill="#49A9E2"></path>
        <path d="M215.134312,7 L300.540579,7 C304.958857,7 308.540579,10.581722 308.540579,15 C308.540579,15.1488369 308.536425,15.2976449 308.528123,15.44625 L288.737846,369.6775 C287.317128,395.107285 266.282021,415 240.812581,415 L189.501457,415 L189.501457,415 C202.745568,336.525868 211.289853,266.692534 215.134312,205.5 C218.978771,144.307466 218.978771,78.1407991 215.134312,7 Z" id="Rectangle" fill="#92B3D4" opacity="0.13625372"></path>
        <path d="M99.0776118,105.769004 L117.923925,426.367915 L117.923925,426.367915 L33,426.367915 L79.1965495,104.933256 C79.9822197,99.466578 85.0507493,95.6718715 90.5174272,96.4575418 C95.2206397,97.1334869 98.7987754,101.025655 99.0776118,105.769004 Z" id="Triangle" fill="url(#linearGradient-2)" opacity="0.360700335" transform="translate(75.461962, 216.683958) scale(1, -1) translate(-75.461962, -216.683958) "></path>
    </g>
</svg>